<mxfile host="app.diagrams.net" modified="2024-02-21T16:07:11.693Z" agent="Mozilla/5.0 (Windows NT 10.0; Win64; x64; rv:123.0) Gecko/20100101 Firefox/123.0" version="23.1.5" etag="wQjp1deREu5O1832zbRo" type="github">
  <diagram name="Page-1" id="I2lGg5c7wZs1G68vXTzx">
    <mxGraphModel>
      <root>
        <mxCell id="0" />
        <mxCell id="1" parent="0" />
      </root>
    </mxGraphModel>
  </diagram>
</mxfile>
